<svg id="Layer_1" enable-background="new 0 0 512 512" height="512" viewBox="0 0 512 512" width="512" xmlns="http://www.w3.org/2000/svg"><g><g><path d="m502 0h-492c-5.523 0-10 4.478-10 10v492c0 5.522 4.477 10 10 10h492c5.523 0 10-4.478 10-10v-492c0-5.522-4.477-10-10-10zm-482 20h472v144h-308v-64c0-5.522-4.477-10-10-10s-10 4.478-10 10v228h-144zm308 164.001v143.999h-144v-144zm-308 307.999v-144h308v144zm472 0h-144v-307.999-.001h144z"/><path d="m174 65.004c5.523 0 10-4.478 10-10v-.008c0-5.522-4.477-9.996-10-9.996s-10 4.481-10 10.004 4.477 10 10 10z"/></g></g></svg>