<svg id="Layer_1" enable-background="new 0 0 73 73" height="512" viewBox="0 0 73 73" width="512" xmlns="http://www.w3.org/2000/svg"><g id="Estate_Construction"><g><path d="m67.5 66.0960693h-3.012207c0-10.0273323 0-35.0765381 0-45.1208496 0-1.5605469-1.269043-2.8291016-2.8291016-2.8291016h-5.2050781v-6.4130859c0-1.5600586-1.269043-2.8291016-2.8291016-2.8291016h-2.8039551c-.7412567-1.4619904-1.8650246-2.0895877-2.885498-2.1049805-.4355469-.0117188-.7851563.0820313-1.1064453.1606445-.6488953.1601354-.7535973.2246534-1.7841797-.4785155-1.3136787-.897923-1.9467392-1.1115389-3.6079102-.8867188-4.0138168.4613237-4.508358.4806628-5.0839844.824707-.8680611.5205803-1.1844254 1.6787157-.4161377 2.4848633h-10.1796874c-.74403-1.4662318-1.8676567-2.089633-2.8851318-2.1049805-.4296875-.0117188-.784668.0820313-1.1064453.1606445-.6488953.1601354-.7535973.2246534-1.7841798-.4785155-1.3136768-.897923-1.9467411-1.1115389-3.6079102-.8867188-4.0138178.4613237-4.508359.4806628-5.0839844.824707-.9062729.5434971-1.1783247 1.7425575-.3771973 2.5283203-1.3555908.2084961-2.4001465 1.3725586-2.4001465 2.7856445v54.3630371h-3.0117186c-.5522461 0-1 .4477539-1 1s.4477539 1 1 1h62c.5522461 0 1-.4477539 1-1s-.4477539-.9999999-1-.9999999zm-5.012207-45.1208496v6.4125977h-15.9921875v-7.2416992h15.1630859c.4570313 0 .8291016.371582.8291016.8291015zm-33.9838867 6.4125977v-7.2416992h15.9916992v7.2416992zm-17.9921875 0v-7.2416992h15.9921875v7.2416992zm9.9575195-16.4838867h15.9921875v7.2421875c-5.9437618 0-10.0752525 0-15.9921875 0zm33.984375.8291015v6.4130859c-5.9444275 0-10.0766373 0-15.9921875 0v-7.2421875h15.1630859c.4570313.0000001.8291016.3720704.8291016.8291016zm-43.9418945 0c0-.4570313.3720703-.8291016.8291016-.8291016.2037888 0 7.5569324 0 7.128418 0v7.2421875h-7.9575195v-6.4130859zm0 17.6547852h51.9760742v36.708252h-6.1762695v-19.215332c0-1.3500977-1.1000977-2.4501953-2.4501953-2.4501953h-11.8999024c-1.3500977 0-2.4499512 1.1000977-2.4499512 2.4501953v19.215332h-28.9997558zm40.3996582 27.8728027c0-.7800293.630127-1.4099121 1.4101563-1.4099121.7797852 0 1.4099121.6298828 1.4099121 1.4099121s-.630127 1.4101563-1.4099121 1.4101563c-.7800294 0-1.4101563-.630127-1.4101563-1.4101563z"/><path d="m13.9414063 37.930542v6.4702148h9.0900879v-8.9499512h-6.6101074c-1.3698731.0000001-2.4799805 1.1101075-2.4799805 2.4797364z"/><path d="m13.9414063 53.1507568c0 1.3598633 1.1101074 2.4699707 2.4799805 2.4699707h6.6101074v-9.2199707h-9.0900879z"/><path d="m31.6313477 35.4508057h-6.5998535v8.9499512h9.079834v-6.4702149c-.0000001-1.3696289-1.1098634-2.4797363-2.4799805-2.4797363z"/><path d="m25.0314941 55.6207275h6.5998535c1.3701172 0 2.4799805-1.1101074 2.4799805-2.4699707v-6.75h-9.079834z"/><path d="m66.8857422 16.1461182c.8833008 0 1.6020508-.71875 1.6020508-1.6025391v-8.0371094c0-.8837891-.71875-1.6025391-1.6020508-1.6025391h-6.8300781c-.8833008 0-1.6020508.71875-1.6020508 1.6025391v8.0371094c0 .8837891.71875 1.6025391 1.6020508 1.6025391zm-6.4321289-9.2421875h6.0341797v7.2421875h-6.0341797z"/></g></g></svg>